<?xml version="1.0" encoding="UTF-8" standalone="no"?><svg width="586px" height="182px" viewBox="0 0 586 182" version="1.1" xmlns="http://www.w3.org/2000/svg" xmlns:xlink="http://www.w3.org/1999/xlink" xmlns:sketch="http://www.bohemiancoding.com/sketch/ns"><!--Generator: Sketch 3.5.1 (25234) - http://www.bohemiancoding.com/sketch--><title>Slice 1</title><desc>Created with Sketch.</desc><defs/><g id="Page-1" stroke="none" stroke-width="1" fill="none" fill-rule="evenodd" sketch:type="MSPage"><g id="Group-2" sketch:type="MSLayerGroup"><g id="Group" fill="#3D485C" sketch:type="MSShapeGroup"><path d="M15.503876,63.9745509 L3.11053289,63.9745509 C1.3936311,63.9745509 0,65.3655629 0,67.0814631 L0,160.125124 C0,161.847849 1.39263301,163.232036 3.11053289,163.232036 L66.656909,163.232036 C68.3738108,163.232036 69.7674419,161.841024 69.7674419,160.125124 L69.7674419,67.0814631 C69.7674419,65.3587382 68.3748088,63.9745509 66.656909,63.9745509 L54.2635659,63.9745509 L54.2635659,40.7110778 L15.503876,40.7110778 L15.503876,63.9745509 Z M7.75193798,74.4479113 C7.75193798,72.7321868 9.14782251,71.3413174 10.8445423,71.3413174 L58.9228996,71.3413174 C60.6308978,71.3413174 62.0155039,72.7237989 62.0155039,74.4479113 L62.0155039,156.248196 C62.0155039,157.963921 60.6196194,159.35479 58.9228996,159.35479 L10.8445423,159.35479 C9.13654409,159.35479 7.75193798,157.972309 7.75193798,156.248196 L7.75193798,74.4479113 Z M23,45.3637725 L47,45.3637725 L45.4210526,71.3364095 L24.5789474,71.3364095 L23,45.3637725 Z" id="Rectangle-1-Copy"/><path d="M7.75193798,36.8338323 L62.0155039,36.8338323 L63.9534884,45.3637725 L5.81395349,45.3637725 L7.75193798,36.8338323 Z" id="Rectangle-3"/><path d="M4.8767563,100.891765 C4.8767563,100.891765 25.4776829,83.6272932 45.0475412,105.730834 C64.6173995,127.834375 61.988251,94.6600715 61.988251,94.6600715 L66.2381904,159.179491 L61.988251,161.008678 L5.59441618,160.918382 L4.8767563,100.891765 Z" id="Path-1"/><ellipse id="Oval-1" cx="35.6589147" cy="15.5375117" rx="15.503876" ry="15.5375117"/></g><path d="M87.703125,63.9375 C90.776057,64.9270883 93.276032,67.218732 95.203125,70.8125 C97.4948031,67.9479023 99.3697844,66.0859418 100.828125,65.2265625 C102.286466,64.3671832 104.005198,63.9375 105.984375,63.9375 C109.317725,63.9375 112.143218,65.3567566 114.460938,68.1953125 C116.778657,71.0338684 117.9375,75.3437211 117.9375,81.125 L117.9375,163 L103.015625,163 L103.015625,82.53125 C103.015625,81.3333273 102.677087,80.3697953 102,79.640625 C101.322913,78.9114547 100.51563,78.546875 99.578125,78.546875 C99.0052055,78.546875 98.4322945,78.7552063 97.859375,79.171875 C97.2864555,79.5885437 96.7395859,80.2395789 96.21875,81.125 L96.21875,163 L81.296875,163 L81.296875,82.53125 C81.296875,78.7291477 80.3073016,76.0989656 78.328125,74.640625 L87.703125,63.9375 Z M130.0625,35.65625 L144.984375,35.65625 L144.984375,102.140625 C146.442716,100.682284 147.666662,98.4557441 148.65625,95.4609375 C149.645838,92.4661309 150.140625,89.3281414 150.140625,86.046875 L150.140625,64.953125 L165.0625,64.953125 L165.0625,84.015625 C165.0625,90.1094055 164.203134,95.7083078 162.484375,100.8125 C161.286452,104.354184 159.697927,106.776035 157.71875,108.078125 C159.333341,109.432298 160.505205,110.76041 161.234375,112.0625 C162.744799,114.718763 163.942704,117.99998 164.828125,121.90625 C166.078131,127.531278 166.703125,134.276002 166.703125,142.140625 L166.703125,163 L151.859375,163 L151.859375,143 C151.859375,133.208284 151.000009,126.020856 149.28125,121.4375 C148.343745,118.989571 146.911468,117.166673 144.984375,115.96875 L144.984375,163 L130.0625,163 L130.0625,35.65625 Z M174.921875,146.75 C176.744801,148.677093 178.802072,149.640625 181.09375,149.640625 C183.177094,149.640625 184.869785,148.950528 186.171875,147.570312 C187.473965,146.190097 188.125,144.250012 188.125,141.75 C188.125,137.11456 186.145853,129.015683 182.1875,117.453125 C177.447893,103.546805 175.078125,93.0260773 175.078125,85.890625 C175.078125,78.1822531 176.497382,72.5963715 179.335938,69.1328125 C182.174493,65.6692535 185.833311,63.9375 190.3125,63.9375 C193.07293,63.9375 196.380189,65.0051977 200.234375,67.140625 L200.234375,80.734375 C198.203115,79.0156164 196.380216,78.15625 194.765625,78.15625 C193.151034,78.15625 191.757818,78.8072852 190.585938,80.109375 C189.414057,81.4114648 188.828125,83.2604047 188.828125,85.65625 C188.828125,90.0833555 190.703106,97.8697359 194.453125,109.015625 C199.296899,123.494864 201.71875,134.458296 201.71875,141.90625 C201.71875,149.510455 200.169286,155.096336 197.070312,158.664062 C193.971339,162.231789 189.843776,164.015625 184.6875,164.015625 C181.406234,164.015625 178.151058,163.130217 174.921875,161.359375 L174.921875,146.75 Z M218.0625,63.9375 C220.510429,64.9270883 222.307286,65.9296824 223.453125,66.9453125 C224.598964,67.9609426 225.510413,69.2499922 226.1875,70.8125 C228.94793,66.2291437 231.630195,63.9375 234.234375,63.9375 C237.515641,63.9375 240.302072,65.9426883 242.59375,69.953125 C246.395852,76.4635742 248.296875,88.4947039 248.296875,106.046875 L248.296875,117.21875 C248.296875,133.989667 245.666693,146.489542 240.40625,154.71875 C236.864566,160.291695 232.12503,163.390622 226.1875,164.015625 L226.1875,181.671875 L211.34375,181.671875 L211.34375,81.28125 C211.34375,78.5729031 210.250011,76.3593836 208.0625,74.640625 L218.0625,63.9375 Z M226.1875,79.328125 L226.1875,145.65625 C228.062509,145.239581 229.54687,143.937511 230.640625,141.75 C232.515634,137.84373 233.453125,130.526095 233.453125,119.796875 L233.453125,99.328125 C233.453125,89.7968273 232.697924,83.5468898 231.1875,80.578125 C230.406246,79.0677008 229.442714,78.3125 228.296875,78.3125 C227.567705,78.3125 226.864587,78.6510383 226.1875,79.328125 L226.1875,79.328125 Z M265.5,34.640625 C267.947929,34.640625 270.018221,35.4999914 271.710938,37.21875 C273.403654,38.9375086 274.25,40.9947797 274.25,43.390625 C274.25,45.7864703 273.403654,47.8437414 271.710938,49.5625 C270.018221,51.2812586 267.947929,52.140625 265.5,52.140625 C263.104155,52.140625 261.059904,51.2812586 259.367188,49.5625 C257.674471,47.8437414 256.828125,45.8125117 256.828125,43.46875 C256.828125,41.0729047 257.700512,39.0026129 259.445312,37.2578125 C261.190113,35.5130121 263.208322,34.640625 265.5,34.640625 L265.5,34.640625 Z M258.078125,64.953125 L273,64.953125 L273,163 L258.078125,163 L258.078125,64.953125 Z M284.421875,35.65625 L299.34375,35.65625 L299.34375,142.921875 C299.34375,146.098974 299.682288,148.364577 300.359375,149.71875 C301.036462,151.072923 302.234366,152.192704 303.953125,153.078125 L292.546875,164.015625 C289.838528,163.07812 287.807298,161.59376 286.453125,159.5625 C285.098952,157.53124 284.421875,154.614602 284.421875,150.8125 L284.421875,35.65625 Z M313.421875,35.65625 L328.34375,35.65625 L328.34375,142.921875 C328.34375,146.098974 328.682288,148.364577 329.359375,149.71875 C330.036462,151.072923 331.234366,152.192704 332.953125,153.078125 L321.546875,164.015625 C318.838528,163.07812 316.807298,161.59376 315.453125,159.5625 C314.098952,157.53124 313.421875,154.614602 313.421875,150.8125 L313.421875,35.65625 Z" id="nkspill" fill="#C0B2A5" sketch:type="MSShapeGroup"/><path d="M363.53125,35.65625 L378.375,35.65625 L378.375,139.328125 C378.375,144.953153 379.572905,148.96353 381.96875,151.359375 L373.375,164.015625 C369.46873,162.817702 366.786466,159.927106 365.328125,155.34375 C362.984363,159.041685 361.148444,161.411453 359.820312,162.453125 C358.492181,163.494797 357.098966,164.015625 355.640625,164.015625 C352.098941,164.015625 349.13022,162.088561 346.734375,158.234375 C343.192691,152.453096 341.421875,141.932368 341.421875,126.671875 L341.421875,109.171875 C341.421875,92.505125 344.026016,80.2917055 349.234375,72.53125 C352.828143,67.1666398 357.59372,64.3020852 363.53125,63.9375 L363.53125,35.65625 Z M363.53125,81.90625 C361.604157,82.4791695 360.119797,83.8593641 359.078125,86.046875 C357.255199,89.7968938 356.34375,95.8905828 356.34375,104.328125 L356.34375,124.640625 C356.34375,136.671935 357.046868,144.223943 358.453125,147.296875 C359.130212,148.703132 359.989578,149.40625 361.03125,149.40625 C361.60417,149.40625 362.124998,149.263022 362.59375,148.976562 C363.062502,148.690103 363.374999,148.390627 363.53125,148.078125 L363.53125,81.90625 Z M426.4375,162.53125 C424.093738,163.520838 421.411473,164.015625 418.390625,164.015625 C410.890588,164.015625 404.354195,160.369828 398.78125,153.078125 C393.208305,145.786422 390.421875,132.869884 390.421875,114.328125 L390.421875,103.078125 C390.421875,88.07805 392.661436,77.2708664 397.140625,70.65625 C400.161473,66.1770609 404.119767,63.9375 409.015625,63.9375 C415.057322,63.9375 419.601547,66.6067441 422.648438,71.9453125 C425.695328,77.2838809 427.21875,83.7291289 427.21875,91.28125 C427.21875,100.343795 425.382831,107.557265 421.710938,112.921875 C418.039044,118.286485 412.869825,122.010406 406.203125,124.09375 C406.307292,132.270874 408.052066,138.624977 411.4375,143.15625 C413.885429,146.385433 416.776025,148 420.109375,148 C421.619799,148 423.729153,147.348965 426.4375,146.046875 L426.4375,162.53125 Z M409.328125,79.40625 C407.973952,81.4895937 407.088544,83.3124922 406.671875,84.875 C405.890621,87.8437648 405.5,91.3072719 405.5,95.265625 L405.5,108 C407.739595,107.010412 409.471348,105.291679 410.695312,102.84375 C411.919277,100.395821 412.53125,96.6719 412.53125,91.671875 C412.53125,86.2030977 411.463552,82.1145969 409.328125,79.40625 L409.328125,79.40625 Z M435.203125,146.75 C437.026051,148.677093 439.083322,149.640625 441.375,149.640625 C443.458344,149.640625 445.151035,148.950528 446.453125,147.570312 C447.755215,146.190097 448.40625,144.250012 448.40625,141.75 C448.40625,137.11456 446.427103,129.015683 442.46875,117.453125 C437.729143,103.546805 435.359375,93.0260773 435.359375,85.890625 C435.359375,78.1822531 436.778632,72.5963715 439.617188,69.1328125 C442.455743,65.6692535 446.114561,63.9375 450.59375,63.9375 C453.35418,63.9375 456.661439,65.0051977 460.515625,67.140625 L460.515625,80.734375 C458.484365,79.0156164 456.661466,78.15625 455.046875,78.15625 C453.432284,78.15625 452.039068,78.8072852 450.867188,80.109375 C449.695307,81.4114648 449.109375,83.2604047 449.109375,85.65625 C449.109375,90.0833555 450.984356,97.8697359 454.734375,109.015625 C459.578149,123.494864 462,134.458296 462,141.90625 C462,149.510455 460.450536,155.096336 457.351562,158.664062 C454.252589,162.231789 450.125026,164.015625 444.96875,164.015625 C441.687484,164.015625 438.432308,163.130217 435.203125,161.359375 L435.203125,146.75 Z M478.421875,34.640625 C480.869804,34.640625 482.940096,35.4999914 484.632812,37.21875 C486.325529,38.9375086 487.171875,40.9947797 487.171875,43.390625 C487.171875,45.7864703 486.325529,47.8437414 484.632812,49.5625 C482.940096,51.2812586 480.869804,52.140625 478.421875,52.140625 C476.02603,52.140625 473.981779,51.2812586 472.289062,49.5625 C470.596346,47.8437414 469.75,45.8125117 469.75,43.46875 C469.75,41.0729047 470.622387,39.0026129 472.367188,37.2578125 C474.111988,35.5130121 476.130197,34.640625 478.421875,34.640625 L478.421875,34.640625 Z M471,64.953125 L485.921875,64.953125 L485.921875,163 L471,163 L471,64.953125 Z M532.65625,63.9375 L532.65625,160.65625 C532.65625,167.062532 530.820331,172.166648 527.148438,175.96875 C523.476544,179.770852 518.671905,181.671875 512.734375,181.671875 C510.33853,181.671875 508.098969,181.346357 506.015625,180.695312 C503.932281,180.044268 501.145851,178.781259 497.65625,176.90625 L502.34375,164.015625 C505.6771,165.994802 508.515613,166.984375 510.859375,166.984375 C513.09897,166.984375 514.804682,166.411464 515.976562,165.265625 C517.148443,164.119786 517.734375,162.583343 517.734375,160.65625 L517.734375,156.4375 C515.286446,159.718766 512.656264,161.359375 509.84375,161.359375 C506.5104,161.359375 503.72397,159.380228 501.484375,155.421875 C497.630189,148.651008 495.703125,135.91676 495.703125,117.21875 C495.703125,103.624932 496.91405,93.1302453 499.335938,85.734375 C501.757825,78.3385047 505.221332,72.8567887 509.726562,69.2890625 C514.231793,65.7213363 519.609344,63.9375 525.859375,63.9375 L532.65625,63.9375 Z M517.734375,81.59375 C515.598948,82.9479234 513.932298,85.1354016 512.734375,88.15625 C511.536452,91.1770984 510.9375,96.3332969 510.9375,103.625 L510.9375,125.421875 C510.9375,135.265674 511.562494,141.437488 512.8125,143.9375 C513.54167,145.343757 514.505202,146.046875 515.703125,146.046875 C516.692713,146.046875 517.36979,145.812502 517.734375,145.34375 L517.734375,81.59375 Z M551.34375,63.9375 C554.416682,64.9270883 556.916657,67.218732 558.84375,70.8125 C561.135428,67.9479023 563.010409,66.0859418 564.46875,65.2265625 C565.927091,64.3671832 567.645823,63.9375 569.625,63.9375 C572.95835,63.9375 575.783843,65.3567566 578.101562,68.1953125 C580.419282,71.0338684 581.578125,75.3437211 581.578125,81.125 L581.578125,163 L566.65625,163 L566.65625,82.53125 C566.65625,81.3333273 566.317712,80.3697953 565.640625,79.640625 C564.963538,78.9114547 564.156255,78.546875 563.21875,78.546875 C562.64583,78.546875 562.07292,78.7552063 561.5,79.171875 C560.92708,79.5885437 560.380211,80.2395789 559.859375,81.125 L559.859375,163 L544.9375,163 L544.9375,82.53125 C544.9375,78.7291477 543.947927,76.0989656 541.96875,74.640625 L551.34375,63.9375 Z" id="design" fill="#374D57" sketch:type="MSShapeGroup"/></g></g></svg>
